,
Brought to you by  http://www.scenetime.com/signup.php
 
 Hottest scene tracker on the net !!!   
 
No fake torrents from scenebalance 
shame on those who comment fake before downloading my torrents

    seed back for speed


 



...................................NFO:.................................................
                   _..._                          _..._    
                .-'_..._''.                    .-'_..._''.  
        .--.  .' .'      '.\                 .' .'      '.\
        |__| / .'                           / .'            
    .|  .--.. '               .|           . '              
  .' |_ |  || |             .' |_     __   | |              
.'     ||  || |           .'     | .:--.'. | |              
'--.  .-'|  |. '          '--.  .-'/ |   \ |. '              
  |  |  |  | \ '.          .|  |  `" __ | | \ '.          .
  |  |  |__|  '. `._____.-'/|  |   .'.''| |  '. `._____.-'/
  |  '.'        `-.______ / |  '.'/ /   | |_   `-.______ /  
  |   /                  `  |   / \ \._,\ '/            `  
  `'-'                      `'-'   `--'  `"                

_____ _____  ____   ____  ____  __  _  _____  ____
| ()_)| () )| ===| (_ (_`| ===||  \| ||_   _|(_ (_`
|_|   |_|\_\|____|.__)__)|____||_|\__|  |_| .__)__)



I Downloaded A Ghost 2004 DVDRip (ReQ) TiCTaC


 
http://www.imdb.com/title/tt0308310/




Young Hallowe'en buff accidentally downloads recently deceased stand-up comic, who ends up helping her foil two bumbling crooks, as well as finishing her haunted house.

4.5


Cast

Carlos Alazraqui 	Carlos Alazraqui 	... 	
Winston Pritchett
Ellen Page 	Ellen Page 	... 	
Stella Blackstone
Vince Corazza 	Vince Corazza 	... 	
Jared
Barbara Alyn Woods 	Barbara Alyn Woods 	... 	
Catherine Blackstone
Tim Progosh 	Tim Progosh 	... 	
Walter Blackstone
Michael Kanev 	Michael Kanev 	... 	
Albert
Gary Hudson 	Gary Hudson 	... 	
Fred Tomlinson
Landon Peters 	Landon Peters 	... 	
Stone Savage
Sheldon Bergstrom 	Sheldon Bergstrom 	... 	
Simon
Rob Roy 	Rob Roy 	... 	
Funeral Director
Ariel Bastian 	Ariel Bastian 	... 	
Kelli Blackstone
Krista Mitchell 	Krista Mitchell 	... 	
Terri Tomlinson
Jody Peters 	Jody Peters 	... 	
Joseph
Gwen Seed 	Gwen Seed 	... 	
Louisa
Jane Cooke 	Jane Cooke 	... 	



Genres:
Comedy | Family | Fantasy

Country:
Canada | USA
Language:
English

Runtime:
90 min

Color

General
Complete name                    : G:\I Downloaded A Ghost 2004 DVDRip (ReQ) TiCTaC\I Downloaded A Ghost 2004 DVDRip (ReQ) TiCTaC.avi
Format                           : AVI
Format/Info                      : Audio Video Interleave
File size                        : 1.13 GiB
Duration                         : 1h 34mn
Overall bit rate                 : 1 702 Kbps
Writing application              : Lavf52.13.0
Writing library                  : VirtualDub build 32842/release

Video
ID                               : 0
Format                           : MPEG-4 Visual
Format profile                   : Simple@L1
Format settings, BVOP            : No
Format settings, QPel            : No
Format settings, GMC             : No warppoints
Format settings, Matrix          : Default (H.263)
Codec ID                         : XVID
Codec ID/Hint                    : XviD
Duration                         : 1h 34mn
Bit rate                         : 1 498 Kbps
Width                            : 720 pixels
Height                           : 432 pixels
Display aspect ratio             : 16:9
Frame rate                       : 25.000 fps
Resolution                       : 8 bits
Colorimetry                      : 4:2:0
Scan type                        : Progressive
Bits/(Pixel*Frame)               : 0.193
Stream size                      : 1 015 MiB (88%)
Writing library                  : Lavc51.54.0

Audio
ID                               : 1
Format                           : MPEG Audio
Format version                   : Version 1
Format profile                   : Layer 3
Mode                             : Joint stereo
Format_Settings_ModeExtension    : MS Stereo
Codec ID                         : 55
Codec ID/Hint                    : MP3
Duration                         : 1h 34mn
Bit rate mode                    : Constant
Bit rate                         : 192 Kbps
Channel(s)                       : 2 channels
Sampling rate                    : 44.1 KHz
Stream size                      : 130 MiB (11%)
Alignment                        : Aligned on interleaves
Interleave, duration             : 26 ms (0.65 video frame)
Interleave, preload duration     : 522 ms
Writing library                  : LAME3.98 (beta)